<?xml version="1.0" encoding="UTF-8"?>
<svg width="200" height="200" viewBox="0 0 200 200" xmlns="http://www.w3.org/2000/svg">
  <!-- Ω (Omega) as vector paths -->
  <!-- This is a traced version of the Omega character -->
  <g transform="translate(100, 100)">
    <!-- Main curved body of Omega -->
    <path d="M -45,-60
             C -65,-60 -75,-45 -75,-25
             C -75,0 -60,20 -40,35
             L -40,60
             L -55,60
             L -55,70
             L -25,70
             L -25,35
             C -25,30 -30,25 -35,20
             C -50,8 -55,-5 -55,-25
             C -55,-40 -50,-50 -45,-50
             C -35,-50 -25,-35 -25,-15
             L -25,15
             C -25,40 -15,50 0,50
             C 15,50 25,40 25,15
             L 25,-15
             C 25,-35 35,-50 45,-50
             C 50,-50 55,-40 55,-25
             C 55,-5 50,8 35,20
             C 30,25 25,30 25,35
             L 25,70
             L 55,70
             L 55,60
             L 40,60
             L 40,35
             C 60,20 75,0 75,-25
             C 75,-45 65,-60 45,-60
             C 25,-60 10,-40 10,-15
             L 10,15
             C 10,30 5,40 0,40
             C -5,40 -10,30 -10,15
             L -10,-15
             C -10,-40 -25,-60 -45,-60
             Z"
          fill="black" stroke="none"/>
  </g>
</svg>
